Final.Destination.5.3D.2011.1080p.BluRay.Half.SBS.DTS.x264-HDMaNiAcS





  Complete name : Final.Destination.5.3D.2011.1080p.BluRay.Half.SBS.DTS.x264-HDMaNiAcS.mkv
   Format : Matroska
   Format version : Version 4 / Version 2
   File size : 6.96 GiB
   Duration : 1h 31mn
   Overall bit rate : 10.9 Mbps
   Encoded date : UTC 2010-02-22 21:41:31
   Writing application : mkvmerge v5.9.0 ('On The Loose') built on Dec  9 2012 15:37:01
   Writing library : libebml v1.3.0 + libmatroska v1.4.0

 Video #1
   ID : 1
   Format : AVC
   Format/Info : Advanced Video Codec
   Format profile : High@L4.1
   Format settings, CABAC : Yes
   Format settings, ReFrames : 4 frames
   Muxing mode : Header stripping
   Codec ID : V_MPEG4/ISO/AVC
   Duration : 1h 31mn
   Bit rate : 9 350 Kbps
   Width : 1 920 pixels
   Height : 1 080 pixels
   Display aspect ratio : 16:9
   Frame rate mode : Constant
   Frame rate : 23.976 fps
   Color space : YUV
   Chroma subsampling : 4:2:0
   Bit depth : 8 bits
   Scan type : Progressive
   Bits/(Pixel*Frame) : 0.188
   Stream size : 5.86 GiB (84%)
   Writing library : x264 core 119 r2106 07efeb4
   Language : English
   Default : Yes
   Forced : No

 Audio #2
   ID : 2
   Format : DTS
   Format/Info : Digital Theater Systems
   Mode : 16
   Format settings, Endianness : Big
   Muxing mode : Header stripping
   Codec ID : A_DTS
   Duration : 1h 31mn
   Bit rate mode : Constant
   Bit rate : 1 509 Kbps
   Channel(s) : 6 channels
   Channel positions : Front: L C R, Side: L R, LFE
   Sampling rate : 48.0 KHz
   Bit depth : 24 bits
   Compression mode : Lossy
   Stream size : 991 MiB (14%)
   Language : English
   Default : Yes
   Forced : No